# File created by Blade
# Date/Time:  Mon Sep 22 17:46:01 2014
# Frame Rate: 120.000 fps
#------------------------------------------------------
:FULLY-SPECIFIED
:DEGREES
2833
root 4.981702 37.505610 5.347536 5.361176 -40.142701 -18.207787
RightUpLeg 8.763328 -28.049135 -26.958423
RightLeg 61.870903 -0.000000 -0.000000
RightFoot -5.427282 -37.124634 20.381179
RightToeBase -2.651555 -0.000000 0.000000
LeftUpLeg 14.648684 14.765160 5.910075
LeftLeg -4.248562 -0.000000 0.000000
LeftFoot -17.034827 29.729004 -14.074986
LeftToeBase 3.436124 -0.000000 -0.000000
Spine 13.339516 -8.268190 -9.962246
RightShoulder -2.265082 -32.815821 -0.690330
RightArm 12.499873 -9.915794 71.315953
RightForeArm 6.902562 0.000000 63.458257
RightHand -1.616330 -0.000000 -24.201102
RightHandThumb1 -24.326973 -0.000000 -32.862282
LeftShoulder -14.837471 31.603645 10.403281
LeftArm 50.149388 -40.822658 -73.452970
LeftForeArm 25.972538 -0.000000 93.919915
LeftHand -34.712386 -0.000000 25.764803
LeftHandThumb1 -26.253704 0.000000 33.147579
Head 32.161790 30.365430 28.761958
2834
root 4.977974 37.501427 5.349438 5.365092 -40.252884 -18.199414
RightUpLeg 8.746694 -28.067633 -26.854611
RightLeg 61.774438 -0.000000 -0.000000
RightFoot -5.384308 -37.209853 20.299400
RightToeBase -2.648860 -0.000000 0.000000
LeftUpLeg 14.694874 14.841988 5.891834
LeftLeg -4.303048 -0.000000 0.000000
LeftFoot -17.013223 29.768607 -14.045303
LeftToeBase 3.403637 -0.000000 -0.000000
Spine 13.322008 -8.189283 -9.987230
RightShoulder -2.290722 -32.851052 -0.689658
RightArm 12.486557 -9.917822 71.299743
RightForeArm 6.949306 -0.000000 63.423218
RightHand -1.430034 0.000000 -24.085468
RightHandThumb1 -24.326973 -0.000000 -32.862282
LeftShoulder -14.855698 31.578963 10.409888
LeftArm 50.125590 -40.793137 -73.437010
LeftForeArm 25.956413 -0.000000 93.941512
LeftHand -34.747344 0.000000 25.630767
LeftHandThumb1 -26.253704 0.000000 33.147579
Head 32.234182 30.408429 28.784552
2835
root 4.968585 37.498808 5.353443 5.347131 -40.369711 -18.217884
RightUpLeg 8.786415 -28.043042 -26.748495
RightLeg 61.689103 -0.000000 -0.000000
RightFoot -5.430556 -37.182545 20.374459
RightToeBase -2.565846 -0.000000 0.000000
LeftUpLeg 14.800004 14.887029 5.905455
LeftLeg -4.376045 -0.000000 0.000000
LeftFoot -17.008770 29.822646 -14.058527
LeftToeBase 3.342907 -0.000000 -0.000000
Spine 13.339611 -8.091064 -9.997299
RightShoulder -2.300074 -32.900251 -0.693152
RightArm 12.475003 -9.910635 71.289809
RightForeArm 6.919165 -0.000000 63.393591
RightHand -1.560000 -0.000000 -24.092388
RightHandThumb1 -24.326973 -0.000000 -32.862282
LeftShoulder -14.858275 31.529746 10.436978
LeftArm 50.047174 -40.762747 -73.397921
LeftForeArm 25.947556 0.000000 93.974094
LeftHand -34.767059 0.000000 25.537019
LeftHandThumb1 -26.253704 0.000000 33.147579
Head 32.287816 30.442594 28.784229
2836
root 4.961244 37.495831 5.357102 5.340367 -40.493205 -18.233877
RightUpLeg 8.795589 -28.019801 -26.642032
RightLeg 61.594929 -0.000000 -0.000000
RightFoot -5.316327 -37.229253 20.292902
RightToeBase -2.588844 -0.000000 0.000000
LeftUpLeg 14.884650 14.932420 5.908869
LeftLeg -4.434187 -0.000000 0.000000
LeftFoot -17.028462 29.866660 -14.100395
LeftToeBase 3.383036 -0.000000 -0.000000
Spine 13.345639 -8.000930 -10.007123
RightShoulder -2.292518 -32.907657 -0.707974
RightArm 12.434495 -9.910018 71.284024
RightForeArm 6.946364 -0.000000 63.365675
RightHand -1.622810 0.000000 -24.138147
RightHandThumb1 -24.326973 -0.000000 -32.862282
LeftShoulder -14.879419 31.507870 10.434467
LeftArm 49.976468 -40.757724 -73.345387
LeftForeArm 25.931487 0.000000 94.016141
LeftHand -34.763484 -0.000000 25.460161
LeftHandThumb1 -26.253704 0.000000 33.147579
Head 32.352317 30.491131 28.805545
2837
root 4.954613 37.493079 5.361473 5.326853 -40.609800 -18.238483
RightUpLeg 8.812264 -28.009448 -26.552200
RightLeg 61.512208 -0.000000 -0.000000
RightFoot -5.318290 -37.245898 20.363978
RightToeBase -2.553803 -0.000000 0.000000
LeftUpLeg 14.960273 14.978320 5.903526
LeftLeg -4.480433 -0.000000 0.000000
LeftFoot -17.038752 29.918982 -14.119315
LeftToeBase 3.360671 -0.000000 -0.000000
Spine 13.345988 -7.910321 -10.014418
RightShoulder -2.298488 -32.956813 -0.724478
RightArm 12.436830 -9.895328 71.285001
RightForeArm 6.880852 -0.000000 63.313967
RightHand -1.660323 -0.000000 -24.084090
RightHandThumb1 -24.326973 -0.000000 -32.862282
LeftShoulder -14.863311 31.520045 10.421109
LeftArm 49.899230 -40.801373 -73.282033
LeftForeArm 25.890536 -0.000000 94.073255
LeftHand -34.759032 -0.000000 25.458545
LeftHandThumb1 -26.253704 0.000000 33.147579
Head 32.386315 30.487742 28.748239
2838
root 4.946908 37.489692 5.365207 5.310287 -40.722422 -18.240370
RightUpLeg 8.841143 -27.987725 -26.467730
RightLeg 61.422264 -0.000000 -0.000000
RightFoot -5.195060 -37.256113 20.241116
RightToeBase -2.689703 -0.000000 0.000000
LeftUpLeg 15.029024 15.009863 5.896692
LeftLeg -4.514308 -0.000000 0.000000
LeftFoot -17.054616 29.985515 -14.145920
LeftToeBase 3.335345 -0.000000 -0.000000
Spine 13.352774 -7.814588 -10.034777
RightShoulder -2.299137 -32.960463 -0.735277
RightArm 12.390584 -9.893715 71.292204
RightForeArm 6.843297 -0.000000 63.263404
RightHand -1.644920 -0.000000 -24.019802
RightHandThumb1 -24.326973 -0.000000 -32.862282
LeftShoulder -14.840003 31.534401 10.429026
LeftArm 49.812167 -40.854687 -73.218066
LeftForeArm 25.836547 -0.000000 94.150872
LeftHand -34.747036 -0.000000 25.442482
LeftHandThumb1 -26.253704 0.000000 33.147579
Head 32.446946 30.524326 28.811914
2839
root 4.939717 37.486170 5.371313 5.274104 -40.807331 -18.223628
RightUpLeg 8.897284 -27.953881 -26.395817
RightLeg 61.325142 -0.000000 -0.000000
RightFoot -5.240665 -37.220990 20.331230
RightToeBase -2.648004 -0.000000 0.000000
LeftUpLeg 15.100011 15.037338 5.880656
LeftLeg -4.541733 -0.000000 0.000000
LeftFoot -17.063513 30.030764 -14.158069
LeftToeBase 3.302566 -0.000000 -0.000000
Spine 13.368210 -7.752132 -10.062964
RightShoulder -2.285905 -32.969966 -0.752607
RightArm 12.350258 -9.891208 71.295411
RightForeArm 6.872361 0.000000 63.197286
RightHand -1.678934 -0.000000 -24.107661
RightHandThumb1 -24.326973 -0.000000 -32.862282
LeftShoulder -14.839365 31.581647 10.397093
LeftArm 49.762480 -40.923885 -73.147202
LeftForeArm 25.725125 -0.000000 94.213164
LeftHand -34.557571 -0.000000 25.502210
LeftHandThumb1 -26.253704 0.000000 33.147579
Head 32.497389 30.540740 28.833136
2840
root 4.934117 37.482034 5.376749 5.245347 -40.878657 -18.195809
RightUpLeg 8.942163 -27.938137 -26.339449
RightLeg 61.220316 -0.000000 -0.000000
RightFoot -5.053880 -37.273159 20.207925
RightToeBase -2.875558 -0.000000 0.000000
LeftUpLeg 15.140742 15.077679 5.854503
LeftLeg -4.551767 -0.000000 0.000000
LeftFoot -17.061660 30.065268 -14.138631
LeftToeBase 3.271855 -0.000000 -0.000000
Spine 13.372750 -7.714874 -10.097618
RightShoulder -2.272836 -32.995199 -0.767556
RightArm 12.337032 -9.878905 71.288739
RightForeArm 6.865529 -0.000000 63.139322
RightHand -1.723774 -0.000000 -24.070761
RightHandThumb1 -24.326973 -0.000000 -32.862282
LeftShoulder -14.862135 31.616953 10.345754
LeftArm 49.740325 -41.002076 -73.095470
LeftForeArm 25.679111 -0.000000 94.272634
LeftHand -34.691567 -0.000000 25.500414
LeftHandThumb1 -26.253704 0.000000 33.147579
Head 32.527376 30.555307 28.848456
2841
root 4.927249 37.477208 5.384285 5.198715 -40.935901 -18.154496
RightUpLeg 9.017372 -27.911362 -26.294382
RightLeg 61.118530 -0.000000 -0.000000
RightFoot -5.124256 -37.209225 20.254869
RightToeBase -2.629036 -0.000000 0.000000
LeftUpLeg 15.187749 15.113957 5.822515
LeftLeg -4.557714 -0.000000 0.000000
LeftFoot -17.047227 30.110077 -14.084724
LeftToeBase 3.223677 -0.000000 -0.000000
Spine 13.384031 -7.680060 -10.139392
RightShoulder -2.276333 -33.019436 -0.777838
RightArm 12.328426 -9.880889 71.285764
RightForeArm 6.922946 -0.000000 63.071098
RightHand -1.661975 0.000000 -24.068209
RightHandThumb1 -24.326973 -0.000000 -32.862282
LeftShoulder -14.870022 31.646990 10.308844
LeftArm 49.702060 -41.085388 -73.042375
LeftForeArm 25.595149 0.000000 94.336586
LeftHand -34.727953 -0.000000 25.491734
LeftHandThumb1 -26.253704 0.000000 33.147579
Head 32.533050 30.556045 28.854934
2842
root 4.921215 37.472540 5.389293 5.180397 -40.984023 -18.117440
RightUpLeg 9.070605 -27.878200 -26.230279
RightLeg 60.999704 -0.000000 -0.000000
RightFoot -5.294887 -37.204085 20.507990
RightToeBase -2.537177 -0.000000 0.000000
LeftUpLeg 15.199008 15.123404 5.782141
LeftLeg -4.556004 -0.000000 0.000000
LeftFoot -17.066597 30.157672 -14.064356
LeftToeBase 3.233955 -0.000000 -0.000000
Spine 13.370527 -7.640093 -10.176331
RightShoulder -2.300178 -33.016308 -0.760824
RightArm 12.291239 -9.899646 71.264202
RightForeArm 7.000116 -0.000000 63.008099
RightHand -1.627776 -0.000000 -24.099882
RightHandThumb1 -24.326973 -0.000000 -32.862282
LeftShoulder -14.884958 31.685557 10.269755
LeftArm 49.700088 -41.158411 -73.003559
LeftForeArm 25.520146 -0.000000 94.395294
LeftHand -34.748353 -0.000000 25.485028
LeftHandThumb1 -26.253704 0.000000 33.147579
Head 32.529211 30.543594 28.882511
2843
root 4.917411 37.466632 5.395336 5.163459 -41.013021 -18.055825
RightUpLeg 9.112035 -27.872956 -26.185381
RightLeg 60.871575 -0.000000 -0.000000
RightFoot -5.137227 -37.268523 20.303436
RightToeBase -2.487010 -0.000000 0.000000
LeftUpLeg 15.185417 15.108150 5.712190
LeftLeg -4.553863 -0.000000 0.000000
LeftFoot -17.068138 30.223940 -14.018579
LeftToeBase 3.199190 -0.000000 -0.000000
Spine 13.335778 -7.629661 -10.228348
RightShoulder -2.296191 -33.019273 -0.754057
RightArm 12.234677 -9.885369 71.264324
RightForeArm 7.035940 0.000000 62.959493
RightHand -1.636565 -0.000000 -24.071340
RightHandThumb1 -24.326973 -0.000000 -32.862282
LeftShoulder -14.924298 31.708919 10.223592
LeftArm 49.695064 -41.208091 -72.961029
LeftForeArm 25.420922 -0.000000 94.441740
LeftHand -34.660581 -0.000000 25.529963
LeftHandThumb1 -26.253704 0.000000 33.147579
Head 32.534480 30.521060 28.919159
2844
root 4.909546 37.462498 5.401678 5.156828 -41.046911 -18.033419
RightUpLeg 9.178576 -27.825220 -26.101272
RightLeg 60.703329 -0.000000 -0.000000
RightFoot -5.078470 -37.333394 20.261158
RightToeBase -2.614671 -0.000000 0.000000
LeftUpLeg 15.203496 15.100406 5.686995
LeftLeg -4.566796 -0.000000 0.000000
LeftFoot -17.053859 30.275572 -13.991292
LeftToeBase 3.098171 -0.000000 -0.000000
Spine 13.308859 -7.590981 -10.249944
RightShoulder -2.321568 -33.056347 -0.721866
RightArm 12.219396 -9.881614 71.234466
RightForeArm 7.091884 0.000000 62.901958
RightHand -1.599751 0.000000 -24.136389
RightHandThumb1 -24.326973 -0.000000 -32.862282
LeftShoulder -14.946420 31.728374 10.185514
LeftArm 49.704594 -41.260649 -72.938162
LeftForeArm 25.361327 -0.000000 94.500730
LeftHand -34.671905 0.000000 25.465884
LeftHandThumb1 -26.253704 0.000000 33.147579
Head 32.516662 30.447785 28.937130
2845
root 4.900039 37.459359 5.407484 5.159017 -41.079370 -18.026036
RightUpLeg 9.237827 -27.728223 -25.974873
RightLeg 60.533717 -0.000000 -0.000000
RightFoot -5.195467 -37.360612 20.378132
RightToeBase -2.568705 -0.000000 0.000000
LeftUpLeg 15.231990 15.107238 5.679941
LeftLeg -4.597147 -0.000000 0.000000
LeftFoot -17.064471 30.302192 -13.982500
LeftToeBase 3.114172 -0.000000 -0.000000
Spine 13.282676 -7.550999 -10.263959
RightShoulder -2.350973 -33.108271 -0.673845
RightArm 12.216611 -9.853466 71.199509
RightForeArm 7.104959 0.000000 62.866638
RightHand -1.636269 -0.000000 -24.074164
RightHandThumb1 -24.326973 -0.000000 -32.862282
LeftShoulder -14.982641 31.753726 10.140393
LeftArm 49.707163 -41.304764 -72.893544
LeftForeArm 25.324471 0.000000 94.567056
LeftHand -34.705156 -0.000000 25.372699
LeftHandThumb1 -26.253704 0.000000 33.147579
Head 32.512789 30.384298 28.996746
